<svg width="66" height="66" viewBox="0 0 66 66" fill="none" xmlns="http://www.w3.org/2000/svg">
<rect x="5" y="5" width="56" height="56" rx="28" fill="#FFC9B1"/>
<rect x="5" y="5" width="56" height="56" rx="28" stroke="#FFF0E9" stroke-width="10"/>
<path d="M32.56 16C23.4297 16 16 23.4297 16 32.56C16 41.6903 23.4297 49.12 32.56 49.12C41.6903 49.12 49.12 41.6903 49.12 32.56C49.12 23.4297 41.6903 16 32.56 16ZM38.8312 37.8088C39.112 38.0896 39.112 38.5504 38.8312 38.8312C38.6872 38.968 38.5072 39.04 38.32 39.04C38.1328 39.04 37.9528 38.968 37.8088 38.8312L32.56 33.5824L27.3112 38.8312C27.1672 38.968 26.9872 39.04 26.8 39.04C26.6128 39.04 26.4328 38.968 26.2888 38.8312C26.008 38.5504 26.008 38.0896 26.2888 37.8088L31.5376 32.56L26.2888 27.3112C26.008 27.0304 26.008 26.5696 26.2888 26.2888C26.5696 26.008 27.0304 26.008 27.3112 26.2888L32.56 31.5376L37.8088 26.2888C38.0896 26.008 38.5504 26.008 38.8312 26.2888C39.112 26.5696 39.112 27.0304 38.8312 27.3112L33.5824 32.56L38.8312 37.8088Z" fill="#FE4F00"/>
</svg>
