<svg width="18" height="18" viewBox="0 0 18 18" fill="none" xmlns="http://www.w3.org/2000/svg">
<path d="M5.66667 13.1682H12.3333M8.18141 1.30492L2.52949 5.70086C2.15168 5.99471 1.96278 6.14163 1.82669 6.32563C1.70614 6.48862 1.61633 6.67224 1.56169 6.86746C1.5 7.08785 1.5 7.32717 1.5 7.8058V13.8349C1.5 14.7683 1.5 15.235 1.68166 15.5916C1.84144 15.9052 2.09641 16.1601 2.41002 16.3199C2.76654 16.5016 3.23325 16.5016 4.16667 16.5016H13.8333C14.7668 16.5016 15.2335 16.5016 15.59 16.3199C15.9036 16.1601 16.1586 15.9052 16.3183 15.5916C16.5 15.235 16.5 14.7683 16.5 13.8349V7.8058C16.5 7.32717 16.5 7.08785 16.4383 6.86746C16.3837 6.67224 16.2939 6.48862 16.1733 6.32563C16.0372 6.14163 15.8483 5.99471 15.4705 5.70086L9.81859 1.30492C9.52582 1.07721 9.37943 0.963353 9.21779 0.919588C9.07516 0.880971 8.92484 0.880971 8.78221 0.919588C8.62057 0.963353 8.47418 1.07721 8.18141 1.30492Z" stroke="#667085" stroke-width="1.66667" stroke-linecap="round" stroke-linejoin="round"/>
</svg>
