<svg width="20" height="20" viewBox="0 0 20 20" fill="none" xmlns="http://www.w3.org/2000/svg">
<path d="M12.5 1.66797H4.99998C4.55795 1.66797 4.13403 1.84356 3.82147 2.15612C3.50891 2.46868 3.33331 2.89261 3.33331 3.33464V16.668C3.33331 17.11 3.50891 17.5339 3.82147 17.8465C4.13403 18.159 4.55795 18.3346 4.99998 18.3346H15C15.442 18.3346 15.8659 18.159 16.1785 17.8465C16.4911 17.5339 16.6666 17.11 16.6666 16.668V5.83464L12.5 1.66797Z" stroke="#667085" stroke-width="1.66667" stroke-linecap="round" stroke-linejoin="round"/>
<path d="M11.6667 1.66797V5.0013C11.6667 5.44333 11.8423 5.86725 12.1548 6.17981C12.4674 6.49237 12.8913 6.66797 13.3334 6.66797H16.6667" stroke="#667085" stroke-width="1.66667" stroke-linecap="round" stroke-linejoin="round"/>
<path d="M10 10V15" stroke="#667085" stroke-width="1.66667" stroke-linecap="round" stroke-linejoin="round"/>
<path d="M12.5 12.5L10 10L7.5 12.5" stroke="#667085" stroke-width="1.66667" stroke-linecap="round" stroke-linejoin="round"/>
</svg>
