<svg width="66" height="66" viewBox="0 0 66 66" fill="none" xmlns="http://www.w3.org/2000/svg">
<rect x="5" y="5" width="56" height="56" rx="28" fill="#FFC9B1"/>
<rect x="5" y="5" width="56" height="56" rx="28" stroke="#FFF0E9" stroke-width="10"/>
<path d="M33.0004 16.4404C23.8694 16.4404 16.4404 23.8694 16.4404 33.0004C16.4404 42.1322 23.8694 49.5604 33.0004 49.5604C42.1322 49.5604 49.5604 42.1322 49.5604 33.0004C49.5604 23.8694 42.1322 16.4404 33.0004 16.4404ZM40.7959 26.9251L32.5079 39.1384L26.0301 33.1271C25.7385 32.8571 25.7212 32.4014 25.9919 32.1098C26.2619 31.8175 26.7184 31.8016 27.0093 32.0716L32.2581 36.9417L39.6043 26.1158C39.8282 25.7867 40.276 25.7018 40.6043 25.9243C40.9341 26.1475 41.0198 26.5953 40.7959 26.9251Z" fill="#FE4F00"/>
</svg>
